# xmcd
#
# Track frame offsets:
#	182
#	10992
#	22882
#	34167
#	49165
#	62417
#	74367
#	85295
#	95200
#	107622
#	120800
#	131395
#	144785
#	154515
#
# Disc length: 2207
#
# Revision: 3
# Processed by: cddbd v1.5.1PL0 Copyright (c) Steve Scherf et al.
# Submitted via: audiograbber 1.81.03
# Normalized: r2:DSETVAR1
#
DISCID=a8089d0e
DTITLE=Various Artist - Country Hits - volume 1
DYEAR=1900
DGENRE=
TTITLE0=Kenny Rogers - She Even Woke Me Up To Say Goodbye
TTITLE1=Patsy Cline - Walkin' After Midnight
TTITLE2=Waylon Jennings - Sally Was A Good Old Girl
TTITLE3=Willie Nelson - Face Of A Fighter
TTITLE4=Kenny Rogers - Ruby Don't Take Your Love To Town
TTITLE5=Patsy Cline - In Care Of The Blues
TTITLE6=Dolly Parton - It Wasn't God Who Made Honky Tonk Angels
TTITLE7=Dave Dudley - Six Days On The Road
TTITLE8=Kenny Rogers - Ruben James
TTITLE9=B.  J. Thomas - Raindrops Keep Fallin' On My Head
TTITLE10=Kenny Rogers - Ticket To Nowhere
TTITLE11=Lynn Anderson - Rose Garden
TTITLE12=Dave Dudley - Last Day In The Mines
TTITLE13=Habk Locklin - Send Me The Pillow You Dream On
EXTD=
EXTT0=Kenny Rogers
EXTT1=Patsy Cline
EXTT2=Waylon Jennings
EXTT3=Willie Nelson
EXTT4=Kenny Rogers
EXTT5=Patsy Cline
EXTT6=Dolly Parton
EXTT7=Dave Dudley
EXTT8=Kenny Rogers
EXTT9=B.  J. Thomas
EXTT10=Kenny Rogers
EXTT11=Lynn Anderson
EXTT12=Dave Dudley
EXTT13=Habk Locklin
PLAYORDER=
